<?xml version="1.0" encoding="UTF-8"?>
<svg width="30px" height="30px" viewBox="0 0 30 30" version="1.1" xmlns="http://www.w3.org/2000/svg" xmlns:xlink="http://www.w3.org/1999/xlink">
    <!-- Generator: Sketch 49 (51002) - http://www.bohemiancoding.com/sketch -->
    <title>help_emoji_btn_nor</title>
    <desc>Created with Sketch.</desc>
    <defs></defs>
    <g id="PC在线教室" stroke="none" stroke-width="1" fill="none" fill-rule="evenodd">
        <g id="直播教室-外教-帮助-展开状态" transform="translate(-839.000000, -1009.000000)">
            <g id="help_poptop" transform="translate(824.000000, 542.000000)">
                <g id="help_emoji_btn_nor" transform="translate(15.000000, 467.000000)">
                    <g id="表情">
                        <path d="M14.9944173,29.516129 C6.97738061,29.516129 0.478288268,23.0170367 0.478288268,15 C0.478288268,6.98296331 6.97738061,0.483870968 14.9944173,0.483870968 C23.011454,0.483870968 29.5105463,6.98296331 29.5105463,15 C29.5105463,23.0170367 23.011454,29.516129 14.9944173,29.516129 Z M8.64361085,18.6290323 C8.64361085,21.6557348 11.3021413,24.0725806 14.5407883,24.0725806 C17.7794352,24.0725806 20.4379657,21.6557348 20.4379657,18.6290323 C20.4379657,18.1279675 20.0317724,17.7217742 19.5307076,17.7217742 L9.55086891,17.7217742 C9.04980412,17.7217742 8.64361085,18.1279675 8.64361085,18.6290323 Z M20.2111512,14.546371 C22.0901441,14.546371 23.6133689,13.0231462 23.6133689,11.1441532 C23.6133689,9.26516025 22.0901441,7.74193548 20.2111512,7.74193548 C18.3321582,7.74193548 16.8089334,9.26516025 16.8089334,11.1441532 C16.8089334,13.0231462 18.3321582,14.546371 20.2111512,14.546371 Z M20.2111512,12.7318548 C19.3342878,12.7318548 18.6234496,12.0210166 18.6234496,11.1441532 C18.6234496,10.2672898 19.3342878,9.55645161 20.2111512,9.55645161 C21.0880146,9.55645161 21.7988528,10.2672898 21.7988528,11.1441532 C21.7988528,12.0210166 21.0880146,12.7318548 20.2111512,12.7318548 Z M9.60206089,11.3710363 L6.36238285,13.3148431 C5.93272334,13.5726388 5.79340019,14.1299314 6.0511959,14.5595909 C6.30899161,14.9892504 6.86628418,15.1285736 7.2959437,14.8707779 L11.832234,12.1490037 C12.4195375,11.7966216 12.4195375,10.945451 11.832234,10.5930689 L7.2959437,7.87129473 C6.86628418,7.61349902 6.30899161,7.75282217 6.0511959,8.18248168 C5.79340019,8.6121412 5.93272334,9.16943377 6.36238285,9.42722948 L9.60206089,11.3710363 Z" id="Combined-Shape" fill="#D8D8D8"></path>
                        <g id="Group-30" transform="translate(5.443548, 7.258065)"></g>
                    </g>
                </g>
            </g>
        </g>
    </g>
</svg>