<?xml version="1.0" encoding="UTF-8"?>
<svg width="30px" height="30px" viewBox="0 0 30 30" version="1.1" xmlns="http://www.w3.org/2000/svg" xmlns:xlink="http://www.w3.org/1999/xlink">
    <!-- Generator: Sketch 49 (51002) - http://www.bohemiancoding.com/sketch -->
    <title>help_img_btn_nor</title>
    <desc>Created with Sketch.</desc>
    <defs>
        <path d="M2,0 L28,0 C29.1045695,-2.02906125e-16 30,0.8954305 30,2 L30,28 C30,29.1045695 29.1045695,30 28,30 L2,30 C0.8954305,30 1.3527075e-16,29.1045695 0,28 L0,2 C-1.3527075e-16,0.8954305 0.8954305,2.02906125e-16 2,0 Z" id="path-1"></path>
    </defs>
    <g id="PC在线教室" stroke="none" stroke-width="1" fill="none" fill-rule="evenodd">
        <g id="直播教室-外教-帮助-展开状态" transform="translate(-885.000000, -1009.000000)">
            <g id="help_poptop" transform="translate(824.000000, 542.000000)">
                <g id="Group-32" transform="translate(61.000000, 467.000000)">
                    <g id="Path-23">
                        <g id="help_img_btn_nor">
                            <mask id="mask-2" fill="white">
                                <use xlink:href="#path-1"></use>
                            </mask>
                            <path stroke="#D8D8D8" stroke-width="2" d="M2,1 C1.44771525,1 1,1.44771525 1,2 L1,28 C1,28.5522847 1.44771525,29 2,29 L28,29 C28.5522847,29 29,28.5522847 29,28 L29,2 C29,1.44771525 28.5522847,1 28,1 L2,1 Z"></path>
                            <path d="M-0.30859375,25.5585938 L7.95080757,14.9612438 C8.62981903,14.0900278 9.88652664,13.9342153 10.7577426,14.6132268 C10.9237273,14.7425925 11.0682546,14.8973445 11.1859905,15.0717712 L13.0732196,17.8677176 C13.6911884,18.7832438 14.9343318,19.0244617 15.849858,18.4064929 C15.8970359,18.3746484 15.9428328,18.3408045 15.9871237,18.3050535 L18.2221807,16.5009468 C19.0226531,15.8548168 20.1827145,15.9212953 20.9041347,16.6546389 L32.75,28.6962891 L-1.40917969,28.6962891 L-0.30859375,25.5585938 Z" id="Path-23" fill="#D8D8D8" fill-rule="evenodd" mask="url(#mask-2)"></path>
                            <path d="M22.5,11 C23.8807119,11 25,9.88071187 25,8.5 C25,7.11928813 23.8807119,6 22.5,6 C21.1192881,6 20,7.11928813 20,8.5 C20,9.88071187 21.1192881,11 22.5,11 Z" id="Oval-12" fill="#D8D8D8" fill-rule="evenodd" mask="url(#mask-2)"></path>
                        </g>
                    </g>
                </g>
            </g>
        </g>
    </g>
</svg>